Coordinates
version=1
nRows=7
nColumns=46
inDegrees=yes

Units are S.I. units (second, meters, Newtons, ...)
Angles are in degrees.

endheader
time	pelvis_tilt	pelvis_list	pelvis_rotation	pelvis_tx	pelvis_ty	pelvis_tz	bb_angle	bb_tx	bb_ty	bb_tz	hip_flexion_r	hip_adduction_r	hip_rotation_r	knee_angle_r	knee_angle_r_beta	ankle_angle_r	subtalar_angle_r	mtp_angle_r	crank_angle_r	hip_flexion_l	hip_adduction_l	hip_rotation_l	knee_angle_l	knee_angle_l_beta	ankle_angle_l	subtalar_angle_l	mtp_angle_l	crank_angle_l	lumbar_extension	lumbar_bending	lumbar_rotation	arm_flex_r	arm_add_r	arm_rot_r	elbow_flex_r	pro_sup_r	wrist_flex_r	wrist_dev_r	arm_flex_l	arm_add_l	arm_rot_l	elbow_flex_l	pro_sup_l	wrist_flex_l	wrist_dev_l
      5.00500000	    -32.76403192	     -5.59452804	    -14.00713900	      0.43137701	      1.19389961	     -0.24925196	      0.00000000	      0.50000000	      0.00000000	      0.25000000	     79.86798372	     10.57347392	     -1.32404878	     89.80916742	      1.56746567	      7.11706209	     -7.44020188	      0.00000000	      0.00000000	     35.92278203	    -19.78770150	     -7.88460339	     39.16490533	      0.68355655	    -25.08641926	      1.67349406	      0.00000000	      0.00000000	    -66.39546560	     -3.62171088	      6.66978465	     41.84721527	    -27.47665046	     24.61127266	    112.33891323	     51.15964928	      0.00000000	      0.00000000	     20.48986940	    -30.20330523	      3.03047792	    113.80490786	     54.68925670	      0.00000000	      0.00000000
      5.01000000	    -32.54293447	     -4.86111290	    -14.01098024	      0.43192906	      1.19578992	     -0.24804569	      0.00000000	      0.50000000	      0.00000000	      0.25000000	     78.32217297	     10.56095678	     -0.51761313	     87.22960505	      1.52244381	      8.11321638	     -7.94816960	      0.00000000	      0.00000000	     36.91014252	    -19.17122122	     -7.20899052	     41.70610105	      0.72790878	    -25.53530712	      1.35941064	      0.00000000	      0.00000000	    -66.70541088	     -4.37480672	      6.20460619	     41.53308815	    -27.38110583	     24.33612656	    112.46422881	     51.14821738	      0.00000000	      0.00000000	     21.29217697	    -30.24006285	      3.13727567	    113.77426214	     54.68571557	      0.00000000	      0.00000000
      5.01500000	    -32.73326952	     -4.34605682	    -13.85475370	      0.43207141	      1.19679079	     -0.24716854	      0.00000000	      0.50000000	      0.00000000	      0.25000000	     77.14112743	     10.31179948	     -0.20493758	     84.46637758	      1.47421640	      8.57259332	     -8.36608367	      0.00000000	      0.00000000	     38.61194765	    -18.74214294	     -6.23085071	     44.53483312	      0.77727947	    -26.18119057	      0.75552346	      0.00000000	      0.00000000	    -66.55318998	     -4.97798421	      7.74098815	     38.95088560	    -28.47054885	     20.95507322	    114.29967354	     51.02646389	      0.00000000	      0.00000000	     24.30803950	    -29.39854969	      6.07321102	    112.37276780	     54.80502725	      0.00000000	      0.00000000
      5.02000000	    -32.70125485	     -3.64149296	    -13.94635243	      0.43274293	      1.19790832	     -0.24602727	      0.00000000	      0.50000000	      0.00000000	      0.25000000	     75.69668352	     10.27864475	      0.48042668	     81.64113747	      1.42490665	      8.88990852	     -8.73776819	      0.00000000	      0.00000000	     39.84312802	    -18.24301703	     -5.82409235	     47.15792797	      0.82306111	    -26.83235085	     -0.03903569	      0.00000000	      0.00000000	    -66.65105063	     -5.69143692	      7.24498893	     38.66407304	    -28.19711977	     20.75779673	    114.32191437	     51.00600536	      0.00000000	      0.00000000	     24.75362472	    -29.49228510	      5.99239286	    112.46048613	     54.80338435	      0.00000000	      0.00000000
      5.02500000	    -32.61137633	     -3.01061320	    -13.76430098	      0.43313572	      1.19878107	     -0.24509037	      0.00000000	      0.50000000	      0.00000000	      0.25000000	     74.21159176	      9.99171005	      1.04314012	     78.81373258	      1.37555913	      8.81321985	     -9.18277908	      0.00000000	      0.00000000	     41.13022416	    -17.63010777	     -5.17930434	     49.71578929	      0.86770421	    -27.47085931	     -0.67351574	      0.00000000	      0.00000000	    -66.72818383	     -6.22973434	      6.67880602	     38.28703483	    -27.84387738	     20.29858222	    114.35596461	     50.95810001	      0.00000000	      0.00000000	     25.15548459	    -29.63433104	      6.02890160	    112.58675193	     54.82375801	      0.00000000	      0.00000000
      5.03000000	    -32.56609223	     -2.28102480	    -13.54372078	      0.43340584	      1.19928997	     -0.24437779	      0.00000000	      0.50000000	      0.00000000	      0.25000000	     72.88378511	      9.52227243	      1.58909822	     76.07229955	      1.32771210	      8.35690126	     -9.64460459	      0.00000000	      0.00000000	     42.45023638	    -16.90654026	     -4.64895146	     52.16441706	      0.91044083	    -28.15224482	     -1.10009859	      0.00000000	      0.00000000	    -66.76401915	     -6.66299574	      6.06002116	     37.76897909	    -27.40445540	     19.54694827	    114.43705825	     50.88372796	      0.00000000	      0.00000000	     25.47152224	    -29.79907129	      6.24738864	    112.65511941	     54.85960938	      0.00000000	      0.00000000
      5.03500000	    -32.29887486	     -1.47997111	    -13.39111027	      0.43390939	      1.19995047	     -0.24353217	      0.00000000	      0.50000000	      0.00000000	      0.25000000	     71.42786433	      9.04323264	      2.30953839	     73.54129278	      1.28353770	      7.90079679	     -9.52262724	      0.00000000	      0.00000000	     43.35493655	    -16.09391031	     -4.29620127	     54.41862642	      0.94978421	    -28.44780653	     -1.33575843	      0.00000000	      0.00000000	    -66.99075023	     -7.26256319	      5.33372850	     37.41917121	    -27.27600003	     19.35134199	    114.46331322	     50.86836972	      0.00000000	      0.00000000	     25.81377685	    -29.83230656	      6.30616019	    112.63744408	     54.85902490	      0.00000000	      0.00000000
